<svg width="287" height="136" viewBox="0 0 287 136" fill="none" xmlns="http://www.w3.org/2000/svg">
<g clip-path="url(#clip0_1051_288)">
<path d="M85.8632 125.273H54.6402L39.0287 101.785H57.1901C50.5986 87.8741 38.3436 77.1911 23.4172 72.7369V125.273H0V47.3603C2.56722 47.108 5.16914 46.9775 7.80575 46.9775C13.157 46.9775 18.3782 47.5169 23.4172 48.5435C59.0462 55.7989 85.8632 87.3869 85.8632 125.273Z" fill="#FE7C04"/>
<path d="M78.0575 39.3828V75.7557C65.3775 57.678 45.9325 44.7157 23.4172 40.5747C18.3522 39.6351 13.1397 39.148 7.80575 39.148C5.17781 39.148 2.56722 39.2698 0 39.5046V0H30.9455C56.9646 0 78.0575 17.634 78.0575 39.3828Z" fill="white"/>
<path d="M104.205 33.3643H124.014C130.415 33.3643 134.847 35.0433 137.657 37.9228C140.111 40.3239 141.369 43.5688 141.369 47.7098V47.8316C141.369 54.2519 137.96 58.5146 132.748 60.733L142.739 75.3831H129.331L120.892 62.6556H115.801V75.3831H104.188V33.3643H104.205ZM123.476 53.5298C127.423 53.5298 129.704 51.6072 129.704 48.545V48.4232C129.704 45.1173 127.31 43.4383 123.416 43.4383H115.818V53.5211H123.476V53.5298Z" fill="white"/>
<path d="M147.162 33.3647H166.971C173.372 33.3647 177.804 35.0438 180.614 37.9233C183.068 40.3244 184.326 43.5693 184.326 47.7103V47.8321C184.326 54.2524 180.917 58.5151 175.705 60.7335L185.696 75.3836H172.288L163.849 62.6561H158.758V75.3836H147.145V33.3647H147.162ZM166.433 53.5303C170.38 53.5303 172.661 51.6077 172.661 48.5455V48.4237C172.661 45.1178 170.267 43.4388 166.373 43.4388H158.775V53.5216H166.433V53.5303Z" fill="white"/>
<path d="M205.559 33.0591H216.747L234.579 75.3824H222.133L219.081 67.8834H202.923L199.93 75.3824H187.719L205.551 33.0591H205.559ZM215.733 58.8097L211.067 46.8653L206.34 58.8097H215.733Z" fill="white"/>
<path d="M102.773 105.51V105.388C102.773 93.139 112.348 83.5347 125.332 83.5347C132.695 83.5347 137.899 85.8139 142.331 89.6591L135.506 97.8802C132.513 95.3574 129.521 93.9219 125.393 93.9219C119.348 93.9219 114.682 99.0199 114.682 105.449V105.571C114.682 112.356 119.408 117.219 126.052 117.219C128.862 117.219 131.022 116.619 132.756 115.479V110.381H124.499V101.856H143.771V120.769C139.339 124.431 133.181 127.25 125.575 127.25C112.531 127.25 102.773 118.246 102.773 105.518V105.51Z" fill="white"/>
<path d="M149.965 93.9209H161.335V100.463C163.191 96.0175 166.183 93.1379 171.569 93.3815V105.387H170.615C164.692 105.387 161.335 108.806 161.335 116.314V126.396H149.965V93.9209Z" fill="white"/>
<path d="M173.484 110.311V110.189C173.484 100.941 181.021 93.1987 191.438 93.1987C201.854 93.1987 209.269 100.82 209.269 110.067V110.189C209.269 119.437 201.733 127.179 191.316 127.179C180.9 127.179 173.484 119.558 173.484 110.311ZM198.203 110.311V110.189C198.203 106.231 195.332 102.864 191.325 102.864C187.318 102.864 184.56 106.17 184.56 110.067V110.189C184.56 114.147 187.431 117.514 191.446 117.514C195.462 117.514 198.211 114.217 198.211 110.311H198.203Z" fill="white"/>
<path d="M213.376 115.173V93.9204H224.746V111.511C224.746 115.052 226.602 116.974 229.352 116.974C232.101 116.974 234.078 115.052 234.078 111.511V93.9204H245.449V126.396H234.078V121.95C231.98 124.647 228.987 127.109 224.382 127.109C217.496 127.109 213.367 122.551 213.367 115.165L213.376 115.173Z" fill="white"/>
<path d="M251.445 93.9208H262.816V98.2445C265.027 95.5476 267.785 93.1987 272.634 93.1987C280.353 93.1987 286.996 99.619 286.996 110.006V110.128C286.996 120.689 280.353 127.118 272.694 127.118C267.785 127.118 264.915 124.9 262.824 122.438V136H251.454V93.9208H251.445ZM275.799 110.189V110.067C275.799 105.804 272.868 102.742 269.156 102.742C265.444 102.742 262.573 105.804 262.573 110.067V110.189C262.573 114.513 265.504 117.575 269.156 117.575C272.807 117.575 275.799 114.574 275.799 110.189Z" fill="white"/>
</g>
<defs>
<clipPath id="clip0_1051_288">
<rect width="287" height="136" fill="white"/>
</clipPath>
</defs>
</svg>
