<svg width="128" height="60" viewBox="0 0 128 60" fill="none" xmlns="http://www.w3.org/2000/svg">
<g clip-path="url(#clip0_1051_7)">
<path d="M38.2944 55.2679H24.3692L17.4065 44.9052H25.5064C22.5666 38.7682 17.101 34.0551 10.4439 32.09V55.2679H0V20.8945C1.14496 20.7832 2.3054 20.7256 3.48131 20.7256C5.86794 20.7256 8.19655 20.9635 10.4439 21.4164C26.3342 24.6174 38.2944 38.5533 38.2944 55.2679Z" fill="#FE7C04"/>
<path d="M34.8131 17.3748V33.4216C29.1579 25.4462 20.4856 19.7275 10.4439 17.9006C8.18494 17.4861 5.8602 17.2712 3.48131 17.2712C2.30927 17.2712 1.14496 17.3249 0 17.4285V0H13.8015C25.4058 0 34.8131 7.7797 34.8131 17.3748Z" fill="#0C2745"/>
<path d="M46.4755 14.7188H55.3103C58.165 14.7188 60.1416 15.4595 61.3949 16.7299C62.4895 17.7892 63.0504 19.2208 63.0504 21.0477V21.1014C63.0504 23.9339 61.5302 25.8145 59.2055 26.7932L63.6616 33.2565H57.6815L53.9178 27.6414H51.6472V33.2565H46.4678V14.7188H46.4755ZM55.0705 23.6153C56.8305 23.6153 57.8478 22.7671 57.8478 21.4161V21.3624C57.8478 19.9039 56.7802 19.1632 55.0434 19.1632H51.6549V23.6115H55.0705V23.6153Z" fill="#0C2745"/>
<path d="M65.6337 14.7188H74.4685C77.3232 14.7188 79.2998 15.4595 80.5531 16.7299C81.6477 17.7892 82.2086 19.2208 82.2086 21.0477V21.1014C82.2086 23.9339 80.6884 25.8145 78.3637 26.7932L82.8198 33.2565H76.8397L73.076 27.6414H70.8054V33.2565H65.626V14.7188H65.6337ZM74.2287 23.6153C75.9887 23.6153 77.006 22.7671 77.006 21.4161V21.3624C77.006 19.9039 75.9384 19.1632 74.2016 19.1632H70.8131V23.6115H74.2287V23.6153Z" fill="#0C2745"/>
<path d="M91.6784 14.5845H96.6683L104.621 33.2565H99.0704L97.7088 29.9481H90.5025L89.168 33.2565H83.7217L91.6745 14.5845H91.6784ZM96.2157 25.9451L94.1347 20.6754L92.0265 25.9451H96.2157Z" fill="#0C2745"/>
<path d="M45.8369 46.5474V46.4937C45.8369 41.0897 50.1073 36.8525 55.8979 36.8525C59.1819 36.8525 61.5028 37.8581 63.4794 39.5545L60.4352 43.1815C59.1007 42.0684 57.7662 41.4352 55.925 41.4352C53.2289 41.4352 51.1478 43.6842 51.1478 46.5206V46.5743C51.1478 49.568 53.256 51.7134 56.219 51.7134C57.4722 51.7134 58.4354 51.4486 59.209 50.9458V48.6967H55.5266V44.9354H64.1215V53.2793C62.1449 54.8951 59.3985 56.1387 56.0062 56.1387C50.1885 56.1387 45.8369 52.1663 45.8369 46.5513V46.5474Z" fill="#0C2745"/>
<path d="M66.8838 41.4352H71.9549V44.3214C72.7827 42.3602 74.1172 41.0898 76.5193 41.1972V46.4937H76.0938C73.4519 46.4937 71.9549 48.0021 71.9549 51.3143V55.7626H66.8838V41.4352Z" fill="#0C2745"/>
<path d="M77.374 48.6661V48.6124C77.374 44.5326 80.7354 41.1167 85.381 41.1167C90.0266 41.1167 93.3339 44.4788 93.3339 48.5586V48.6124C93.3339 52.6922 89.9725 56.1081 85.3269 56.1081C80.6813 56.1081 77.374 52.7459 77.374 48.6661ZM88.3982 48.6661V48.6124C88.3982 46.8661 87.1178 45.3808 85.3308 45.3808C83.5437 45.3808 82.3136 46.8392 82.3136 48.5586V48.6124C82.3136 50.3587 83.594 51.844 85.3849 51.844C87.1758 51.844 88.402 50.3894 88.402 48.6661H88.3982Z" fill="#0C2745"/>
<path d="M95.1632 50.8119V41.4355H100.234V49.1961C100.234 50.7581 101.062 51.6063 102.288 51.6063C103.514 51.6063 104.396 50.7581 104.396 49.1961V41.4355H109.467V55.7629H104.396V53.8017C103.46 54.9915 102.126 56.0777 100.072 56.0777C97.0005 56.0777 95.1593 54.0665 95.1593 50.808L95.1632 50.8119Z" fill="#0C2745"/>
<path d="M112.145 41.4353H117.216V43.3428C118.202 42.153 119.432 41.1167 121.594 41.1167C125.037 41.1167 128 43.9492 128 48.5318V48.5855C128 53.2449 125.037 56.0812 121.621 56.0812C119.432 56.0812 118.152 55.1025 117.22 54.0163V59.9998H112.148V41.4353H112.145ZM123.006 48.6124V48.5586C123.006 46.678 121.699 45.327 120.043 45.327C118.388 45.327 117.107 46.678 117.107 48.5586V48.6124C117.107 50.5199 118.415 51.8709 120.043 51.8709C121.672 51.8709 123.006 50.5468 123.006 48.6124Z" fill="#0C2745"/>
</g>
<defs>
<clipPath id="clip0_1051_7">
<rect width="128" height="60" fill="white"/>
</clipPath>
</defs>
</svg>
